<svg width="960" height="360" viewBox="0 0 960 360" fill="none" xmlns="http://www.w3.org/2000/svg">
  <defs>
    <linearGradient id="grad" x1="0" y1="0" x2="1" y2="1">
      <stop offset="0%" stop-color="#1d4ed8"/>
      <stop offset="50%" stop-color="#7c3aed"/>
      <stop offset="100%" stop-color="#f97316"/>
    </linearGradient>
    <radialGradient id="glow" cx="0" cy="0" r="1" gradientUnits="userSpaceOnUse" gradientTransform="translate(720 120) rotate(45) scale(320 320)">
      <stop stop-color="#fbbf24" stop-opacity="0.65"/>
      <stop offset="1" stop-color="#f97316" stop-opacity="0"/>
    </radialGradient>
  </defs>
  <rect width="960" height="360" rx="32" fill="url(#grad)"/>
  <circle cx="720" cy="120" r="220" fill="url(#glow)" opacity="0.45"/>
  <g transform="translate(80 120)">
    <text x="0" y="80" fill="#f8fafc" font-family="'Segoe UI', 'Inter', sans-serif" font-weight="700" font-size="120">
      CaptionQA
    </text>
    <text x="6" y="140" fill="#e2e8f0" font-family="'Segoe UI', 'Inter', sans-serif" font-weight="500" font-size="32">
      360° panoramic video captioning &amp; multimodal QA toolkit
    </text>
  </g>
  <g transform="translate(700 220)">
    <path d="M0 -40 A40 40 0 0 1 69.28 -20 L69.28 20 A40 40 0 0 1 0 40 A40 40 0 0 1 -69.28 20 L-69.28 -20 A40 40 0 0 1 0 -40Z" stroke="#f8fafc" stroke-width="4" fill="none" opacity="0.6"/>
    <circle cx="0" cy="0" r="18" fill="#f8fafc" opacity="0.85"/>
  </g>
</svg>
