<svg width="960" height="360" viewBox="0 0 960 360" fill="none" xmlns="http://www.w3.org/2000/svg">
  <defs>
    <linearGradient id="bg" x1="80" y1="24" x2="880" y2="336" gradientUnits="userSpaceOnUse">
      <stop offset="0%" stop-color="#4F46E5"/>
      <stop offset="40%" stop-color="#7C3AED"/>
      <stop offset="75%" stop-color="#A855F7"/>
      <stop offset="100%" stop-color="#FB923C"/>
    </linearGradient>
    <radialGradient id="highlight" cx="0" cy="0" r="1" gradientUnits="userSpaceOnUse" gradientTransform="translate(670 120) rotate(25) scale(260 220)">
      <stop stop-color="#FCD34D" stop-opacity="0.55"/>
      <stop offset="1" stop-color="#FB923C" stop-opacity="0"/>
    </radialGradient>
    <linearGradient id="orb" x1="0" y1="0" x2="1" y2="1">
      <stop offset="0%" stop-color="#F8FAFC" stop-opacity="0.8"/>
      <stop offset="100%" stop-color="#E2E8F0" stop-opacity="0.1"/>
    </linearGradient>
    <linearGradient id="ring" x1="0" y1="0" x2="1" y2="1">
      <stop offset="0%" stop-color="#F8FAFC" stop-opacity="0.7"/>
      <stop offset="100%" stop-color="#F8FAFC" stop-opacity="0.1"/>
    </linearGradient>
  </defs>
  <rect width="960" height="360" rx="40" fill="url(#bg)"/>
  <rect width="960" height="360" rx="40" fill="url(#highlight)"/>
  <g opacity="0.25">
    <circle cx="220" cy="70" r="60" fill="url(#orb)"/>
    <circle cx="180" cy="290" r="50" fill="url(#orb)"/>
    <circle cx="340" cy="260" r="36" fill="url(#orb)"/>
  </g>
  <g transform="translate(120 108)">
    <text x="0" y="82" fill="#F8FAFC" font-family="'Segoe UI', 'Inter', sans-serif" font-weight="700" font-size="118" letter-spacing="0.5">
      CaptionQA
    </text>
    <text x="4" y="144" fill="#E2E8F0" font-family="'Segoe UI', 'Inter', sans-serif" font-weight="500" font-size="34">
      360° panoramic video captioning &amp; multimodal QA toolkit
    </text>
  </g>
  <g transform="translate(720 220)">
    <path d="M0 -70C38.66 -70 70 -38.66 70 0C70 38.66 38.66 70 0 70C-38.66 70 -70 38.66 -70 0C-70 -38.66 -38.66 -70 0 -70Z" stroke="url(#ring)" stroke-width="6" fill="none"/>
    <path d="M56 10C72 0 72 -16 56 -24" stroke="#F8FAFC" stroke-width="5" stroke-linecap="round" stroke-linejoin="round" opacity="0.65"/>
    <circle cx="0" cy="0" r="26" fill="#F8FAFC" opacity="0.85"/>
    <circle cx="90" cy="32" r="18" fill="#F8FAFC" opacity="0.9"/>
    <circle cx="116" cy="18" r="10" fill="#F8FAFC" opacity="0.75"/>
  </g>
</svg>